<svg xmlns="http://www.w3.org/2000/svg" width="25.831" height="22.602" viewBox="0 0 25.831 22.602">
    <defs>
        <style>
            .cls-1{fill:#707070}
        </style>
    </defs>
    <path id="Path_316" d="M24.217 1H1.614A1.614 1.614 0 0 0 0 2.614v19.374A1.614 1.614 0 0 0 1.614 23.6h22.6a1.614 1.614 0 0 0 1.614-1.614V2.614A1.614 1.614 0 0 0 24.217 1zM22.6 20.373H3.229V10.239l8.886 5.077a1.611 1.611 0 0 0 1.6 0l8.885-5.077zm0-13.852l-9.687 5.536-9.684-5.536V4.229H22.6z" class="cls-1" data-name="Path 316" transform="translate(0 -1)"/>
</svg>
