<svg xmlns="http://www.w3.org/2000/svg" width="25.592" height="20.758" viewBox="0 0 25.592 20.758">
    <defs>
        <style>
            .cls-1{fill:#707070;fill-rule:evenodd}
        </style>
    </defs>
    <path id="Path_39" d="M46.1 22.758A14.8 14.8 0 0 0 61.033 7.829v-.711a11.557 11.557 0 0 0 2.559-2.7 11.8 11.8 0 0 1-2.986.853 5.532 5.532 0 0 0 2.275-2.844 13.041 13.041 0 0 1-3.27 1.28A5.078 5.078 0 0 0 55.772 2a5.342 5.342 0 0 0-5.261 5.261 2.772 2.772 0 0 0 .143 1.139 14.7 14.7 0 0 1-10.806-5.547 5.445 5.445 0 0 0-.711 2.7 5.649 5.649 0 0 0 2.275 4.408A4.793 4.793 0 0 1 39 9.251a5.2 5.2 0 0 0 4.265 5.118 4.383 4.383 0 0 1-1.422.142 2.42 2.42 0 0 1-1-.142 5.386 5.386 0 0 0 4.976 3.7 10.735 10.735 0 0 1-6.54 2.275A3.936 3.936 0 0 1 38 20.2a13.42 13.42 0 0 0 8.1 2.559" class="cls-1" data-name="Path 39" transform="translate(-38 -2)"/>
</svg>
