<svg xmlns="http://www.w3.org/2000/svg" id="Group_745" width="143.411" height="33.271" data-name="Group 745" viewBox="0 0 143.411 33.271">
    <defs>
        <style>
            .cls-1{fill:#6f6f6f}
        </style>
    </defs>
    <g id="Group_35" data-name="Group 35">
        <path id="Path_53" d="M298.836 22.863c-3.585 4.985-13.99 8.115-20.655 4.2-.086-.053-.171-.1-.249-.15a14.762 14.762 0 0 1-6.392-7.762l-.031-.248-.132-.961s-.583-3.153-1.345-6.254l-.334-1.779a3.6 3.6 0 0 1-.109-.5 4.475 4.475 0 0 1 .225-2.395 4.419 4.419 0 0 1 2.426-2.042c.008 0 .008 0 .015-.008a6.037 6.037 0 0 1 1.835-.308h.008a4.142 4.142 0 0 1 3.336 1.607 4.716 4.716 0 0 1 .412.818 4.35 4.35 0 0 1 .272.961s.179.676.42 1.569a115.662 115.662 0 0 0 1.563 6.569l.3.923.07.218.3.923s1.026 2.778 5.273 2.56 5.49-2.988 5.786-3.7a7.4 7.4 0 0 0-.07-3.273l-1.54-7.259s-1.026-3.776 1.174-5.48 6.447-1.351 7.4 1.779c.933 3.123 1.96 8.821 1.96 8.821s1.667 6.187-1.918 11.171z" class="cls-1" data-name="Path 53" transform="translate(-248.562 -.069)"/>
        <path id="Path_54" d="M29.388 83.26c-.031.045-.062.1-.093.143-4.363 6.252-15.18 7.625-20.608 4.563S2.1 78.592 2.1 78.592.553 73.008.063 69.781 3.275 64.5 6.02 65.165s3.445 4.5 3.445 4.5l1.758 7.212a7.537 7.537 0 0 0 1.353 3 6.249 6.249 0 0 0 6.867 1.013c3.958-1.531 3.678-4.466 3.678-4.466L23 75.492l-.031-.248-.132-.961s-.583-3.152-1.345-6.252l-.334-1.779a3.6 3.6 0 0 1-.109-.5 4.474 4.474 0 0 1 .226-2.394 4.419 4.419 0 0 1 2.425-2.043c.008 0 .008 0 .016-.008A6.038 6.038 0 0 1 25.547 61h.008a4.143 4.143 0 0 1 3.336 1.606 4.717 4.717 0 0 1 .412.818 4.349 4.349 0 0 1 .272.961s.179.675.42 1.569a115.601 115.601 0 0 0 1.563 6.567l.3.923.07.218a14.42 14.42 0 0 1-2.54 9.598z" class="cls-1" data-name="Path 54" transform="translate(-.018 -56.262)"/>
        <path id="Path_55" d="M274.334 68.391a4.086 4.086 0 0 1-4.946-2.38 4.793 4.793 0 0 1 .225-2.481 4.465 4.465 0 0 1 2.426-2.115c.008 0 .008 0 .016-.008a5.654 5.654 0 0 1 .645-.194 4.841 4.841 0 0 1 1.19-.124h.008a4.093 4.093 0 0 1 3.336 1.664 3.061 3.061 0 0 1 .412.848c.023.086.047.163.07.249.452 1.982-1.064 4.012-3.382 4.541z" class="cls-1" data-name="Path 55" transform="translate(-248.377 -56.343)"/>
    </g>
    <g id="Group_38" data-name="Group 38" transform="translate(62.822 1.667)">
        <g id="Group_36" data-name="Group 36">
            <path id="Path_56" d="M782.513 32.5l-4.4 13h-1l-4.033-11.662-4.052 11.662h-1l-4.425-13h1l3.958 11.7 4.067-11.7h.91l4.052 11.719 4-11.719z" class="cls-1" data-name="Path 56" transform="translate(-763.6 -31.645)"/>
            <path id="Path_57" d="M1010 78.922a4.614 4.614 0 1 1 4.6 4.922 4.614 4.614 0 0 1-4.6-4.922zm8.313 0a3.719 3.719 0 1 0-3.7 4.083 3.756 3.756 0 0 0 3.7-4.083z" class="cls-1" data-name="Path 57" transform="translate(-990.838 -69.917)"/>
            <path id="Path_58" d="M1161.957 74v.91c-.094 0-.194-.016-.288-.016-2.8 0-4.464 1.431-4.464 3.826v5.055H1156v-9.7h1.159v2.115c.762-1.405 2.434-2.19 4.798-2.19z" class="cls-1" data-name="Path 58" transform="translate(-1125.484 -69.917)"/>
            <path id="Path_59" d="M1229.642 31l-2.807 2.3v2.88h-1.035V22.4h1.034v9.752l6.882-5.661h1.322l-4.638 3.919 5.094 5.778h-1.275z" class="cls-1" data-name="Path 59" transform="translate(-1189.857 -22.33)"/>
            <path id="Path_60" d="M1346.7 32.5h1.089v12.147h8.609v.853h-9.7z" class="cls-1" data-name="Path 60" transform="translate(-1301.355 -31.645)"/>
            <path id="Path_61" d="M1470.3 30.123a.723.723 0 1 1 1.446 0 .723.723 0 1 1-1.446 0zm.257 2.823h.925v9.7h-.925z" class="cls-1" data-name="Path 61" transform="translate(-1415.343 -28.786)"/>
            <path id="Path_62" d="M1491.183 24.245v1.415h3.1v.8h-3.079v8.9h-.926v-8.9h-1.778v-.8h1.781v-1.485a2.473 2.473 0 0 1 2.691-2.675 2.894 2.894 0 0 1 1.913.63l-.373.708a2.231 2.231 0 0 0-1.5-.537c-1.212-.001-1.829.669-1.829 1.944z" class="cls-1" data-name="Path 62" transform="translate(-1432.128 -21.5)"/>
            <path id="Path_63" d="M1552.112 79.148h-8.671a4 4 0 0 0 4.27 3.865 4.149 4.149 0 0 0 3.227-1.353l.56.614a5.253 5.253 0 0 1-9-3.344 4.818 4.818 0 1 1 9.635-.047c-.005.078-.021.172-.021.265zm-8.655-.723h7.73a3.875 3.875 0 0 0-7.73 0z" class="cls-1" data-name="Path 63" transform="translate(-1481.928 -69.917)"/>
        </g>
        <g id="Group_37" data-name="Group 37" transform="translate(.249 13.161)">
            <path id="Path_64" d="M778.263 226.2l-1.967-1.859a6.571 6.571 0 0 1-4.736 1.765c-2.776 0-4.759-1.338-4.759-3.305 0-1.54.972-2.675 3.562-4.051-1.376-1.3-1.781-2.084-1.781-3.079 0-1.656 1.4-2.768 3.585-2.768 2.006 0 3.3.964 3.3 2.582 0 1.3-.848 2.208-3.157 3.437l3.888 3.678a7.614 7.614 0 0 0 .949-2.5l1.174.334a8.734 8.734 0 0 1-1.252 2.994l2.022 1.913zm-2.815-2.66l-4.269-4.028c-2.271 1.19-2.955 2.006-2.955 3.157 0 1.415 1.377 2.341 3.422 2.341a5.139 5.139 0 0 0 3.802-1.472zm-5.529-7.893c0 .762.3 1.3 1.6 2.5 2.045-1.081 2.714-1.726 2.714-2.659 0-.964-.746-1.618-2.069-1.618-1.414.01-2.246.73-2.246 1.775z" class="cls-1" data-name="Path 64" transform="translate(-766.8 -212.208)"/>
            <path id="Path_65" d="M949.474 223.572c0 2.232-1.882 3.53-5.5 3.53H937v-13h6.579c3.367 0 5.179 1.322 5.179 3.383a3.094 3.094 0 0 1-1.8 2.862 3.234 3.234 0 0 1 2.516 3.225zm-9.869-7.582v3.585h3.695c1.8 0 2.831-.591 2.831-1.781 0-1.205-1.026-1.8-2.831-1.8zm7.24 7.341c0-1.3-1.065-1.874-3.033-1.874H939.6v3.743h4.215c1.965 0 3.03-.571 3.03-1.869z" class="cls-1" data-name="Path 65" transform="translate(-923.764 -213.315)"/>
            <path id="Path_66" d="M1111.313 258.109h-8.562c.3 1.446 1.633 2.38 3.538 2.38a4.092 4.092 0 0 0 2.963-1.081l1.369 1.431a5.817 5.817 0 0 1-4.394 1.617c-3.655 0-6.027-2.138-6.027-5.086s2.387-5.07 5.638-5.07c3.188 0 5.514 2.022 5.514 5.125-.001.186-.024.466-.039.684zm-8.585-1.54h6.19a2.887 2.887 0 0 0-3.087-2.411 2.943 2.943 0 0 0-3.104 2.411z" class="cls-1" data-name="Path 66" transform="translate(-1074.273 -248.544)"/>
            <path id="Path_67" d="M1241.429 253.608l-4.643 10.716c-.91 2.247-2.17 2.932-3.826 2.932a4.122 4.122 0 0 1-2.66-.91l.926-1.711a2.513 2.513 0 0 0 1.711.684c.817 0 1.3-.389 1.75-1.376l.163-.389-4.332-9.954h2.411l3.119 7.333 3.142-7.333h2.24z" class="cls-1" data-name="Path 67" transform="translate(-1194.256 -249.743)"/>
            <path id="Path_68" d="M1365.2 257.37c0-2.971 2.5-5.07 5.91-5.07 3.453 0 5.926 2.1 5.926 5.07s-2.473 5.086-5.926 5.086c-3.41 0-5.91-2.115-5.91-5.086zm9.215 0a3.3 3.3 0 1 0-3.305 3.1 3.061 3.061 0 0 0 3.305-3.1z" class="cls-1" data-name="Path 68" transform="translate(-1318.665 -248.544)"/>
            <path id="Path_69" d="M1537.375 256.647v5.685h-2.325v-5.389c0-1.765-.871-2.621-2.356-2.621-1.656 0-2.768 1-2.768 2.994v5.016h-2.326v-9.923h2.209v1.283a4.309 4.309 0 0 1 3.414-1.392c2.387 0 4.152 1.353 4.152 4.347z" class="cls-1" data-name="Path 69" transform="translate(-1468.436 -248.544)"/>
            <path id="Path_70" d="M1674.938 204v13.78h-2.232v-1.28a4.082 4.082 0 0 1-3.289 1.415 5.078 5.078 0 0 1 0-10.156 4.071 4.071 0 0 1 3.2 1.338V204zm-2.287 8.826a2.959 2.959 0 1 0-2.955 3.1 2.9 2.9 0 0 0 2.955-3.1z" class="cls-1" data-name="Path 70" transform="translate(-1594.597 -204)"/>
        </g>
    </g>
</svg>
