<svg xmlns="http://www.w3.org/2000/svg" id="Group_39" width="103.41" height="23.992" data-name="Group 39" viewBox="0 0 103.41 23.992">
    <defs>
        <style>
            .cls-1{fill:#014a62}
        </style>
    </defs>
    <g id="Group_35" data-name="Group 35">
        <path id="Path_53" d="M290.659 16.506c-2.585 3.594-10.088 5.852-14.894 3.026-.062-.038-.123-.07-.179-.108a10.645 10.645 0 0 1-4.609-5.6l-.022-.179-.1-.693s-.421-2.274-.97-4.509l-.241-1.283a2.594 2.594 0 0 1-.078-.363 3.227 3.227 0 0 1 .163-1.727 3.186 3.186 0 0 1 1.75-1.472c.006 0 .006 0 .011-.005a4.353 4.353 0 0 1 1.323-.222h.006a2.987 2.987 0 0 1 2.406 1.158 3.4 3.4 0 0 1 .3.59 3.138 3.138 0 0 1 .2.693l.3 1.131c.471 2.333 1.127 4.737 1.127 4.737l.213.666.05.157.213.666s.74 2 3.8 1.846a4.371 4.371 0 0 0 4.172-2.669 5.334 5.334 0 0 0-.05-2.36l-1.11-5.235s-.74-2.721.847-3.951 4.649-.974 5.333 1.283 1.413 6.361 1.413 6.361 1.212 4.467-1.374 8.062z" class="cls-1" data-name="Path 53" transform="translate(-254.408 -.069)"/>
        <path id="Path_54" d="M21.2 77.052c-.022.032-.045.07-.067.1-3.146 4.508-10.946 5.5-14.86 3.29a10.656 10.656 0 0 1-4.75-6.759S.4 69.659.05 67.332s2.316-3.8 4.3-3.328 2.48 3.241 2.48 3.241l1.267 5.2a5.435 5.435 0 0 0 .976 2.165 4.506 4.506 0 0 0 4.951.731c2.854-1.1 2.652-3.22 2.652-3.22l-.09-.671-.022-.179-.1-.693s-.421-2.273-.97-4.508l-.241-1.283a2.6 2.6 0 0 1-.079-.363 3.226 3.226 0 0 1 .163-1.726 3.186 3.186 0 0 1 1.75-1.472c.006 0 .006 0 .011-.005A4.354 4.354 0 0 1 18.426 61h.006a2.987 2.987 0 0 1 2.406 1.158 3.4 3.4 0 0 1 .3.59 3.136 3.136 0 0 1 .2.693l.3 1.131a83.387 83.387 0 0 0 1.127 4.735l.213.666.05.157a10.4 10.4 0 0 1-1.828 6.922z" class="cls-1" data-name="Path 54" transform="translate(-.018 -57.583)"/>
        <path id="Path_55" d="M272.936 66.354a2.946 2.946 0 0 1-3.566-1.716 3.456 3.456 0 0 1 .163-1.789 3.22 3.22 0 0 1 1.75-1.525c.006 0 .006 0 .011-.006a4.077 4.077 0 0 1 .465-.14 3.49 3.49 0 0 1 .858-.09h.006a2.951 2.951 0 0 1 2.406 1.2 2.207 2.207 0 0 1 .3.611c.017.062.034.118.05.179a2.906 2.906 0 0 1-2.443 3.276z" class="cls-1" data-name="Path 55" transform="translate(-254.219 -57.666)"/>
    </g>
    <g id="Group_38" data-name="Group 38" transform="translate(45.299 1.202)">
        <g id="Group_36" data-name="Group 36">
            <path id="Path_56" d="M777.238 32.5l-3.174 9.376h-.723l-2.9-8.411-2.922 8.411h-.723L763.6 32.5h.723l2.854 8.439 2.933-8.439h.656l2.922 8.451 2.882-8.451z" class="cls-1" data-name="Path 56" transform="translate(-763.6 -31.883)"/>
            <path id="Path_57" d="M1010 77.55a3.327 3.327 0 1 1 3.32 3.55 3.327 3.327 0 0 1-3.32-3.55zm5.994 0a2.682 2.682 0 1 0-2.669 2.944 2.709 2.709 0 0 0 2.669-2.944z" class="cls-1" data-name="Path 57" transform="translate(-996.183 -71.056)"/>
            <path id="Path_58" d="M1160.3 74v.656c-.067 0-.14-.011-.208-.011-2.019 0-3.219 1.032-3.219 2.759v3.645H1156v-6.993h.836v1.525c.549-1.015 1.755-1.581 3.464-1.581z" class="cls-1" data-name="Path 58" transform="translate(-1133.996 -71.056)"/>
            <path id="Path_59" d="M1228.57 28.6l-2.024 1.66v2.075h-.746V22.4h.746v7.032l4.963-4.082h.953l-3.348 2.826 3.673 4.166h-.92z" class="cls-1" data-name="Path 59" transform="translate(-1199.882 -22.35)"/>
            <path id="Path_60" d="M1346.7 32.5h.785v8.759h6.208v.617h-6.993z" class="cls-1" data-name="Path 60" transform="translate(-1314.002 -31.883)"/>
            <path id="Path_61" d="M1470.3 29.922a.521.521 0 1 1 1.043 0 .521.521 0 1 1-1.043 0zm.185 2.036h.667v6.992h-.667z" class="cls-1" data-name="Path 61" transform="translate(-1430.671 -28.957)"/>
            <path id="Path_62" d="M1490.435 23.479V24.5h2.237v.578h-2.22v6.415h-.667v-6.415h-1.285V24.5h1.284v-1.071a1.783 1.783 0 0 1 1.94-1.929 2.087 2.087 0 0 1 1.379.454l-.269.51a1.608 1.608 0 0 0-1.082-.387c-.874.001-1.317.483-1.317 1.402z" class="cls-1" data-name="Path 62" transform="translate(-1447.851 -21.5)"/>
            <path id="Path_63" d="M1549.431 77.712h-6.252a2.881 2.881 0 0 0 3.079 2.787 2.991 2.991 0 0 0 2.327-.976l.4.443a3.788 3.788 0 0 1-6.488-2.411 3.475 3.475 0 1 1 6.948-.034c-.003.057-.014.124-.014.191zm-6.241-.521h5.574a2.794 2.794 0 0 0-5.574 0z" class="cls-1" data-name="Path 63" transform="translate(-1498.822 -71.056)"/>
        </g>
        <g id="Group_37" data-name="Group 37" transform="translate(.179 9.49)">
            <path id="Path_64" d="M775.066 222.489l-1.419-1.34a4.738 4.738 0 0 1-3.415 1.273c-2 0-3.432-.964-3.432-2.383 0-1.11.7-1.929 2.568-2.922-.993-.936-1.284-1.5-1.284-2.221 0-1.194 1.009-2 2.585-2 1.447 0 2.378.7 2.378 1.862 0 .936-.611 1.593-2.277 2.479l2.8 2.652a5.491 5.491 0 0 0 .684-1.806l.847.241a6.3 6.3 0 0 1-.9 2.159l1.458 1.379zm-2.03-1.918l-3.079-2.9c-1.637.858-2.131 1.447-2.131 2.277 0 1.021.993 1.688 2.467 1.688a3.706 3.706 0 0 0 2.743-1.065zm-3.987-5.692c0 .55.219.936 1.155 1.806 1.475-.779 1.957-1.245 1.957-1.918 0-.7-.538-1.166-1.492-1.166-1.02.006-1.62.527-1.62 1.278z" class="cls-1" data-name="Path 64" transform="translate(-766.8 -212.401)"/>
            <path id="Path_65" d="M945.995 220.93c0 1.609-1.357 2.546-3.965 2.546H937V214.1h4.744c2.428 0 3.735.953 3.735 2.439a2.231 2.231 0 0 1-1.3 2.064 2.332 2.332 0 0 1 1.816 2.327zm-7.116-5.467v2.585h2.664c1.3 0 2.041-.426 2.041-1.284s-.74-1.3-2.041-1.3zm5.221 5.293c0-.936-.768-1.351-2.187-1.351h-3.039v2.7h3.039c1.418.003 2.187-.412 2.187-1.349z" class="cls-1" data-name="Path 65" transform="translate(-927.456 -213.534)"/>
            <path id="Path_66" d="M1108.213 256.489h-6.174a2.356 2.356 0 0 0 2.551 1.716 2.951 2.951 0 0 0 2.136-.779l.987 1.032a4.2 4.2 0 0 1-3.168 1.166c-2.636 0-4.346-1.542-4.346-3.667a3.752 3.752 0 0 1 4.065-3.656 3.665 3.665 0 0 1 3.976 3.7c.001.129-.016.331-.027.488zm-6.191-1.11h4.464a2.082 2.082 0 0 0-2.226-1.738 2.123 2.123 0 0 0-2.238 1.738z" class="cls-1" data-name="Path 66" transform="translate(-1081.504 -249.592)"/>
            <path id="Path_67" d="M1238.325 253.606l-3.348 7.727c-.656 1.621-1.564 2.114-2.759 2.114a2.972 2.972 0 0 1-1.918-.656l.667-1.234a1.812 1.812 0 0 0 1.234.493c.589 0 .936-.28 1.262-.993l.118-.28-3.123-7.178h1.738l2.249 5.288 2.265-5.288h1.615z" class="cls-1" data-name="Path 67" transform="translate(-1204.309 -250.819)"/>
            <path id="Path_68" d="M1365.2 255.956c0-2.142 1.8-3.656 4.262-3.656 2.49 0 4.273 1.514 4.273 3.656s-1.783 3.667-4.273 3.667c-2.462 0-4.262-1.523-4.262-3.667zm6.645 0a2.382 2.382 0 1 0-2.383 2.237 2.207 2.207 0 0 0 2.383-2.237z" class="cls-1" data-name="Path 68" transform="translate(-1331.644 -249.592)"/>
            <path id="Path_69" d="M1534.649 255.435v4.1h-1.677v-3.886c0-1.273-.628-1.89-1.7-1.89a1.9 1.9 0 0 0-2 2.159v3.617h-1.672v-7.155h1.593v.925a3.107 3.107 0 0 1 2.462-1 2.8 2.8 0 0 1 2.994 3.13z" class="cls-1" data-name="Path 69" transform="translate(-1484.938 -249.592)"/>
            <path id="Path_70" d="M1672 204v9.936h-1.609v-.925a2.943 2.943 0 0 1-2.372 1.021 3.662 3.662 0 0 1 0-7.323 2.935 2.935 0 0 1 2.3.965V204zm-1.649 6.365a2.133 2.133 0 1 0-2.131 2.237 2.09 2.09 0 0 0 2.13-2.237z" class="cls-1" data-name="Path 70" transform="translate(-1614.066 -204)"/>
        </g>
    </g>

    <p>asdasdhsadhas</p>
</svg>
